<svg xmlns="http://www.w3.org/2000/svg" width="18" height="16" viewBox="0 0 18 16"><g><g opacity=".4"><path d="M18.012 2.544a7.1 7.1 0 0 1-2.063.57 3.611 3.611 0 0 0 1.58-1.997 7.188 7.188 0 0 1-2.282.876 3.576 3.576 0 0 0-2.622-1.14 3.6 3.6 0 0 0-3.592 3.609c0 .282.032.559.093.822a10.183 10.183 0 0 1-7.404-3.77 3.608 3.608 0 0 0-.486 1.814 3.61 3.61 0 0 0 1.598 3.003 3.553 3.553 0 0 1-1.627-.45v.045a3.605 3.605 0 0 0 2.881 3.537 3.575 3.575 0 0 1-1.622.062 3.598 3.598 0 0 0 3.355 2.506 7.186 7.186 0 0 1-5.318 1.495 10.137 10.137 0 0 0 5.507 1.621c6.607 0 10.22-5.499 10.22-10.267 0-.156-.003-.312-.01-.467a7.305 7.305 0 0 0 1.792-1.869z"/></g></g></svg>