<svg xmlns="http://www.w3.org/2000/svg" width="18" height="16" viewBox="0 0 18 16"><g><g><path fill="#fff" d="M18.012 2.545a7.1 7.1 0 0 1-2.063.568 3.611 3.611 0 0 0 1.58-1.996 7.18 7.18 0 0 1-2.282.876 3.576 3.576 0 0 0-2.622-1.14 3.6 3.6 0 0 0-3.592 3.609c0 .282.032.558.093.823a10.183 10.183 0 0 1-7.404-3.771 3.608 3.608 0 0 0-.486 1.814c0 1.252.634 2.356 1.598 3.003a3.552 3.552 0 0 1-1.627-.45v.044a3.605 3.605 0 0 0 2.881 3.538 3.575 3.575 0 0 1-1.622.062 3.598 3.598 0 0 0 3.355 2.506 7.185 7.185 0 0 1-5.318 1.495 10.134 10.134 0 0 0 5.507 1.621c6.607 0 10.22-5.499 10.22-10.267 0-.157-.003-.312-.01-.467a7.31 7.31 0 0 0 1.792-1.868z"/></g></g></svg>